<svg id="Capa_1" data-name="Capa 1" xmlns="http://www.w3.org/2000/svg" xmlns:xlink="http://www.w3.org/1999/xlink" viewBox="0 0 45 120"><defs><style>.cls-1,.cls-2{fill:none;}.cls-1{clip-rule:evenodd;}.cls-3{clip-path:url(#clip-path);}.cls-4{clip-path:url(#clip-path-2);}.cls-5{clip-path:url(#clip-path-3);}.cls-6{clip-path:url(#clip-path-4);}</style><clipPath id="clip-path"><polygon class="cls-1" points="-133.54 38.04 -139.19 42.89 -139.19 65.51 -85.88 65.51 -85.88 42.89 -92.07 38.04 -133.54 38.04"/></clipPath><clipPath id="clip-path-2"><rect class="cls-2" x="-132.73" y="31.58" width="40.39" height="3.23"/></clipPath><clipPath id="clip-path-3"><path class="cls-1" d="M-131.92,28.35h38.77s-3.23-14.54-19.38-14.54c0,0-3.24,0-3.24,4.84s-16.15-3.23-16.15,9.7"/></clipPath><clipPath id="clip-path-4"><path class="cls-1" d="M-96.58,52.18c0,5.8-7.37,10.5-16.46,10.5S-129.5,58-129.5,52.18s7.37-10.5,16.46-10.5,16.46,4.7,16.46,10.5"/></clipPath></defs><title>icono-corte</title><polygon points="38.5 51.95 38.5 0.5 35.5 0.5 35.5 53.69 38.5 51.95"/><polygon points="35.5 59.46 35.5 119.5 38.5 119.5 38.5 57.73 35.5 59.46"/><polygon points="29 56.86 29 0.5 26 0.5 26 58.59 29 56.86"/><polygon points="26 64.37 26 119.5 29 119.5 29 62.63 26 64.37"/><polygon points="19.5 61.77 19.5 0.5 16.5 0.5 16.5 63.5 19.5 61.77"/><polygon points="16.5 69.27 16.5 119.5 19.5 119.5 19.5 67.54 16.5 69.27"/><polygon points="7 74.18 7 119.5 10 119.5 10 72.45 7 74.18"/><polygon points="10 66.68 10 0.5 7 0.5 7 68.41 10 66.68"/><rect class="cls-2" x="-939.67" y="-808" width="1440" height="2002"/><rect class="cls-2" x="-939.67" y="-808" width="1440" height="2002"/></svg>