<svg id="Capa_1" data-name="Capa 1" xmlns="http://www.w3.org/2000/svg" xmlns:xlink="http://www.w3.org/1999/xlink" viewBox="0 0 45 120"><defs><style>.cls-1,.cls-2{fill:none;}.cls-1{clip-rule:evenodd;}.cls-3{clip-path:url(#clip-path);}.cls-4{clip-path:url(#clip-path-2);}.cls-5{clip-path:url(#clip-path-3);}.cls-6{clip-path:url(#clip-path-4);}</style><clipPath id="clip-path"><polygon class="cls-1" points="-263.54 38.04 -269.19 42.89 -269.19 65.51 -215.88 65.51 -215.88 42.89 -222.07 38.04 -263.54 38.04"/></clipPath><clipPath id="clip-path-2"><rect class="cls-2" x="-262.73" y="31.58" width="40.39" height="3.23"/></clipPath><clipPath id="clip-path-3"><path class="cls-1" d="M-261.92,28.35h38.77s-3.23-14.54-19.38-14.54c0,0-3.24,0-3.24,4.84s-16.15-3.23-16.15,9.7"/></clipPath><clipPath id="clip-path-4"><path class="cls-1" d="M-226.58,52.18c0,5.8-7.37,10.5-16.46,10.5S-259.5,58-259.5,52.18s7.37-10.5,16.46-10.5,16.46,4.7,16.46,10.5"/></clipPath></defs><title>icono-tratamiento</title><rect x="6.5" y="1.5" width="3" height="118"/><rect x="16.17" y="1.5" width="3" height="118"/><polygon points="28.83 21.23 28.83 1.5 25.83 1.5 25.83 22.5 28.83 21.23"/><polygon points="25.83 47.27 25.83 119.5 28.83 119.5 28.83 46 25.83 47.27"/><polygon points="38.5 17.15 38.5 1.5 35.5 1.5 35.5 18.42 38.5 17.15"/><polygon points="35.5 42.18 35.5 119.5 38.5 119.5 38.5 40.92 35.5 42.18"/><rect x="27.88" y="28" width="3" height="4.59"/><rect x="27.88" y="38.41" width="3" height="4.59"/><rect x="32.29" y="34" width="4.59" height="3"/><rect x="21.88" y="34" width="4.59" height="3"/><rect x="37.38" y="20.5" width="2" height="3.06"/><rect x="37.38" y="27.44" width="2" height="3.06"/><rect x="40.32" y="24.5" width="3.06" height="2"/><rect x="33.38" y="24.5" width="3.06" height="2"/><rect class="cls-2" x="-1069.67" y="-808" width="1440" height="2002"/><rect class="cls-2" x="-1069.67" y="-808" width="1440" height="2002"/></svg>