<svg id="Capa_1" data-name="Capa 1" xmlns="http://www.w3.org/2000/svg" xmlns:xlink="http://www.w3.org/1999/xlink" viewBox="0 0 45 120"><defs><style>.cls-1,.cls-2,.cls-3{fill:none;}.cls-1{clip-rule:evenodd;}.cls-3{stroke:#000;stroke-miterlimit:10;stroke-width:3px;}.cls-4{clip-path:url(#clip-path);}.cls-5{clip-path:url(#clip-path-2);}.cls-6{clip-path:url(#clip-path-3);}.cls-7{clip-path:url(#clip-path-4);}</style><clipPath id="clip-path"><polygon class="cls-1" points="-198.54 38.04 -204.19 42.89 -204.19 65.51 -150.88 65.51 -150.88 42.89 -157.07 38.04 -198.54 38.04"/></clipPath><clipPath id="clip-path-2"><rect class="cls-2" x="-197.73" y="31.58" width="40.39" height="3.23"/></clipPath><clipPath id="clip-path-3"><path class="cls-1" d="M-196.92,28.35h38.77s-3.23-14.54-19.38-14.54c0,0-3.24,0-3.24,4.84s-16.15-3.23-16.15,9.7"/></clipPath><clipPath id="clip-path-4"><path class="cls-1" d="M-161.58,52.18c0,5.8-7.37,10.5-16.46,10.5S-194.5,58-194.5,52.18s7.37-10.5,16.46-10.5,16.46,4.7,16.46,10.5"/></clipPath></defs><title>icono-permanente</title><path class="cls-3" d="M13,.5c0,9.38-8,9.38-8,18.75S13,28.63,13,38c0,10.88-8,10.88-8,21.75s8,10.88,8,21.75c0,9.25-8,9.25-8,18.5s8,9.25,8,18.5"/><path class="cls-3" d="M22.33.5c0,9.38-8,9.38-8,18.75s8,9.38,8,18.75c0,10.88-8,10.88-8,21.75s8,10.88,8,21.75c0,9.25-8,9.25-8,18.5s8,9.25,8,18.5"/><path class="cls-3" d="M31.67.5c0,9.38-8,9.38-8,18.75s8,9.38,8,18.75c0,10.88-8,10.88-8,21.75s8,10.88,8,21.75c0,9.25-8,9.25-8,18.5s8,9.25,8,18.5"/><path class="cls-3" d="M41,.5c0,9.38-8,9.38-8,18.75S41,28.63,41,38c0,10.88-8,10.88-8,21.75s8,10.88,8,21.75c0,9.25-8,9.25-8,18.5s8,9.25,8,18.5"/><rect class="cls-2" x="-1004.67" y="-808" width="1440" height="2002"/><rect class="cls-2" x="-1004.67" y="-808" width="1440" height="2002"/></svg>