<svg id="Capa_1" data-name="Capa 1" xmlns="http://www.w3.org/2000/svg" xmlns:xlink="http://www.w3.org/1999/xlink" viewBox="0 0 45 120"><defs><style>.cls-1,.cls-2{fill:none;}.cls-1{clip-rule:evenodd;}.cls-3{clip-path:url(#clip-path);}.cls-4{clip-path:url(#clip-path-2);}.cls-5{clip-path:url(#clip-path-3);}.cls-6{clip-path:url(#clip-path-4);}</style><clipPath id="clip-path"><polygon class="cls-1" points="-68.54 38.04 -74.19 42.89 -74.19 65.51 -20.88 65.51 -20.88 42.89 -27.07 38.04 -68.54 38.04"/></clipPath><clipPath id="clip-path-2"><rect class="cls-2" x="-67.73" y="31.58" width="40.39" height="3.23"/></clipPath><clipPath id="clip-path-3"><path class="cls-1" d="M-66.92,28.35h38.77s-3.23-14.54-19.38-14.54c0,0-3.24,0-3.24,4.84s-16.15-3.23-16.15,9.7"/></clipPath><clipPath id="clip-path-4"><path class="cls-1" d="M-31.58,52.18c0,5.8-7.37,10.5-16.46,10.5S-64.5,58-64.5,52.18s7.37-10.5,16.46-10.5,16.46,4.7,16.46,10.5"/></clipPath></defs><title>icono-color</title><path d="M3.08,1.5v118h38V1.5Zm35,3.08V30.23h-32V4.58ZM6.08,59V33.31h32V59Zm32,3.08V87.69h-32V62Zm-32,54.38V90.77h32v25.65Z"/><rect class="cls-2" x="-874.67" y="-808" width="1440" height="2002"/><rect class="cls-2" x="-874.67" y="-808" width="1440" height="2002"/></svg>