<?xml version="1.0" encoding="UTF-8"?>
<svg width="52px" height="32px" viewBox="0 0 52 32" version="1.1" xmlns="http://www.w3.org/2000/svg" xmlns:xlink="http://www.w3.org/1999/xlink">
    <!-- Generator: Sketch 47.1 (45422) - http://www.bohemiancoding.com/sketch -->
    <title>MENU HAMB</title>
    <desc>Created with Sketch.</desc>
    <defs></defs>
    <g id="Page-1" stroke="none" stroke-width="1" fill="none" fill-rule="evenodd">
        <g id="2.-¿QUÉ-HACEMOS?---5" transform="translate(-1324.000000, -72.000000)" fill="#262626">
            <g id="MENU-HAMB" transform="translate(1324.000000, 72.000000)">
                <path d="M2.51966208,4.53000021 C1.13261683,4.53000021 0,3.78781699 0,2.88288999 L0,1.64711022 C0,0.740394823 1.13261683,0 2.51966208,0 L49.4603375,0 C50.8473827,0 51.9799995,0.740394823 51.9799995,1.64711022 L51.9799995,2.88288999 C51.9799995,3.78781699 50.8473827,4.53000021 49.4603375,4.53000021 L2.51966208,4.53000021 Z" id="Fill-1"></path>
                <path d="M2.51966208,17.5300002 C1.13261683,17.5300002 0,16.787817 0,15.88289 L0,14.6471102 C0,13.7403948 1.13261683,13 2.51966208,13 L49.4603375,13 C50.8473827,13 51.9799995,13.7403948 51.9799995,14.6471102 L51.9799995,15.88289 C51.9799995,16.787817 50.8473827,17.5300002 49.4603375,17.5300002 L2.51966208,17.5300002 Z" id="Fill-1-Copy"></path>
                <path d="M2.51966208,31.5300002 C1.13261683,31.5300002 0,30.787817 0,29.88289 L0,28.6471102 C0,27.7403948 1.13261683,27 2.51966208,27 L49.4603375,27 C50.8473827,27 51.9799995,27.7403948 51.9799995,28.6471102 L51.9799995,29.88289 C51.9799995,30.787817 50.8473827,31.5300002 49.4603375,31.5300002 L2.51966208,31.5300002 Z" id="Fill-1-Copy-2"></path>
            </g>
        </g>
    </g>
</svg>